<?xml version="1.0" encoding="UTF-8"?><svg xmlns="http://www.w3.org/2000/svg" viewBox="0 0 2807.00513 2027.02484"><defs><style>.uuid-824e84bb-7f08-42f5-a96f-76e91ad5e8a7{fill:#9cbfba;}.uuid-d80dac59-e2fd-4b92-902e-6ffcee01d1ab{fill:#c6e5b3;}.uuid-ce76f39e-da40-418e-b305-55c02bb81693{fill:#fff;}.uuid-db168fe7-f596-40d6-ae74-29ef329e2c7a{fill:#9bbfbb;}.uuid-4e496116-3ee3-423b-9847-f1f24dcf9016{fill:#bee9b2;}.uuid-a137b5f7-8561-4bd3-b985-de5a7d052d4f{fill:#3e721d;}.uuid-022ca1a3-64b4-4c06-a5b7-5401bcff64d3{fill:#7c3225;}.uuid-76bd2bdb-76dd-4118-be98-f3026108ff91{fill:#a6d388;}.uuid-b9e1f45c-5472-4aad-95be-3c9cef18a339{fill:#438e31;}.uuid-0522d70a-2710-495a-b7f3-33a3f7b1a8db{fill:#662113;}</style></defs><g id="uuid-32393843-82aa-4dc2-8b10-661bd36fa14c"><g id="uuid-67f5b846-1ac3-4b59-adba-2dbfa29ef85b"><path class="uuid-ce76f39e-da40-418e-b305-55c02bb81693" d="M1059.74274,472.06486c33.32712,10.8349,68.94039,17.52173,103.44061,11.37136,32.89818-5.86477,64.90716-23.24611,97.86843-17.747,24.43956,4.07738,44.91292,20.15845,64.21313,35.6961,46.03908,37.06378,92.62973,74.69688,127.63222,122.32194,39.63691,53.93074,62.52236,118.07878,83.74679,181.55424,16.48297,49.29529,32.45947,99.85626,32.10562,151.83306-.25805,37.90652-15.25425,82.20007-51.84823,92.09205-3.53167.95466-7.50163,1.75739-9.65149,4.71747-7.17143,9.87414,15.51247,20.09054,12.1962,31.83492-52.86371,9.88795-110.89758,18.99913-157.65793-7.56799-22.34271-12.69412-39.71295-32.4038-56.50934-51.85165-67.54378-78.20617-133.02633-158.17256-197.53494-238.90054"/><path class="uuid-ce76f39e-da40-418e-b305-55c02bb81693" d="M991.95364,717.95601c14.94665,4.81978,30.16697,8.84198,45.69898,11.25782,28.87993,4.49196,58.74886,9.6646,88.29515,11.2957,7.76822.42884,15.56728.36575,23.322-.27488,36.9565-3.05303,74.11525-7.41735,109.72631-17.95235,14.35566-4.24691,28.65493-8.78847,43.52765-10.85707-22.59637,3.03628-45.19273,6.07256-67.7891,9.10885,8.20467-1.01771,16.34247-1.19015,24.55227-.11777l-67.7891-9.10885c7.2535,1.12161,14.17301,3.18784,20.93252,6.03293-20.30476-8.56871-40.60952-17.13742-60.91428-25.70613,12.45804,5.49453,23.631,13.2083,34.38497,21.48251-17.20295-13.29093-34.4059-26.58186-51.60885-39.8728,47.60318,36.95794,95.7537,75.91401,132.95697,123.7055-13.29093-17.20295-26.58186-34.4059-39.8728-51.60885,23.6838,30.73501,41.80382,65.10027,56.8866,100.75085-8.56871-20.30476-17.13742-40.60952-25.70613-60.91428,13.07136,31.11625,23.98179,63.07785,34.60264,95.09638,11.38373,34.31838,22.03325,69.04485,27.02345,104.95272-3.03628-22.59637-6.07256-45.19273-9.10885-67.7891,2.5622,19.25868,3.8608,38.94839,1.37738,58.28326,3.03628-22.59637,6.07256-45.19273,9.10885-67.7891-1.53877,11.1653-4.25628,22.09494-8.55181,32.52797l25.70613-60.91428c-3.05537,7.16354-6.81344,13.92445-11.56554,20.10584,13.29093-17.20295,26.58186-34.4059,39.8728-51.60885-3.37856,4.2398-7.13435,8.0522-11.4039,11.39733,17.20295-13.29093,34.4059-26.58186,51.60885-39.8728-3.67585,2.75521-7.56314,5.04934-11.76363,6.91089,20.30476-8.56871,40.60952-17.13742,60.91428-25.70613-2.37686.98734-4.78833,1.8246-7.26525,2.5241-23.20075,6.55216-45.69536,16.13495-66.87831,27.59735-19.87088,10.75242-37.9706,25.35455-53.89357,41.26652-.54625.39591-1.01383.87342-1.40274,1.43253-13.29093,17.20295-26.58186,34.4059-39.8728,51.60885-22.40064,34.5905-37.31844,90.70794-36.13965,131.75366.02153.74977.02869,1.55911.02559,2.3065,3.03628,22.59637,6.07256,45.19273,9.10885,67.7891.06495.3959.1633.78281.29506,1.16073.11543.39903.26028.78752.43456,1.16547,8.56871,20.30476,17.13742,40.60952,25.70613,60.91428.4231.79041.80754,1.58554,1.2811,2.34915,13.4367,21.66655,30.9638,40.53291,46.82324,60.47105-13.29093-17.20295-26.58186-34.4059-39.8728-51.60885,1.44172,1.87268,2.74773,3.76233,3.77494,5.89591-8.56871-20.30476-17.13742-40.60952-25.70613-60.91428.47308,1.14815.81133,2.25309,1.01932,3.47795-3.03628-22.59637-6.07256-45.19273-9.10885-67.7891.07303.93404.0568,1.73584-.05538,2.66629,3.03628-22.59637,6.07256-45.19273,9.10885-67.7891l-.20476.90042,178.10205-178.10205c-13.40989,2.50337-26.8415,4.88239-40.36025,6.72498,22.59637-3.03628,45.19273-6.07256,67.7891-9.10885-22.88346,3.0345-46.06056,4.48771-69.02564,1.45805,22.59637,3.03628,45.19273,6.07256,67.7891,9.10885-11.96759-1.69901-23.62921-4.63542-34.83699-9.191,20.30476,8.56871,40.60952,17.13742,60.91428,25.70613-10.4238-4.39931-20.02649-10.12978-28.99259-17.02035,17.20295,13.29093,34.4059,26.58186,51.60885,39.8728-17.13418-13.4799-31.26662-30.14511-45.43738-46.5912-16.00918-18.5797-31.90407-37.25777-47.69857-56.02027-31.58982-37.52597-62.77771-75.3891-93.68032-113.48258-17.30586-21.33284-34.52064-42.73936-51.67046-64.19781-23.09718-24.86669-50.45251-42.44198-82.06599-52.72586-30.38916-15.9657-63.13791-23.28633-98.24624-21.96191-35.10834-1.32442-67.85708,5.99622-98.24624,21.96191-31.61348,10.28388-58.96881,27.85917-82.06599,52.72586l-39.8728,51.60885c-23.06692,39.7727-34.67191,82.67383-34.81498,128.70338,3.03628,22.59637,6.07256,45.19273,9.10885,67.7891,12.11554,43.19822,33.97519,80.70593,65.57892,112.52313,48.18183,60.28678,96.89548,120.15349,146.61455,179.1812,12.63986,15.00636,25.34416,29.95848,38.12012,44.84916,11.33721,13.2138,22.49658,26.67604,34.71369,39.09637,6.00782,6.10776,12.33325,11.83356,19.03838,17.16512,18.03089,14.33718,36.4126,28.83521,55.00965,42.43582,1.60444,1.17338,3.23204,2.31538,4.8873,3.41608,3.76438,2.5032,7.66435,4.80275,11.68575,6.86843,1.72313.88513,3.46897,1.7256,5.23266,2.52667,21.17284,9.61675,43.12451,18.68718,64.70037,27.35228,3.81479,1.53206,7.65932,2.94881,11.59205,4.15152,18.42844,5.63578,38.29046,7.06115,57.13949,9.59391,20.1765,2.71112,40.11172,6.26869,60.47864,6.26413,9.34199-.00209,18.67743-.55825,27.97249-1.47259,41.04331-4.03736,82.05144-9.95591,122.61842-17.529,43.19822-12.11554,80.70593-33.97519,112.52313-65.57892,31.60374-31.81719,53.46338-69.3249,65.57892-112.52313,10.36346-45.57349,14.62952-94.43027.11113-140.02243-7.19388-22.59098-15.60891-45.23674-27.70799-65.64618-13.26316-22.37308-31.78339-41.33458-47.7866-61.86017,13.29093,17.20295,26.58186,34.4059,39.8728,51.60885-1.12614-1.50466-2.14841-3.02554-2.96113-4.72449,8.56871,20.30476,17.13742,40.60952,25.70613,60.91428-.31391-.78251-.54609-1.50382-.72961-2.32621,3.03628,22.59637,6.07256,45.19273,9.10885,67.7891-.09966-.81478-.10982-1.49006-.02559-2.3065-3.03628,22.59637-6.07256,45.19273-9.10885,67.7891.08759-.52766.23738-1.0371.44939-1.52832-8.56871,20.30476-17.13742,40.60952-25.70613,60.91428.23506-.5398.52682-1.04712.87528-1.52196-13.29093,17.20295-26.58186,34.4059-39.8728,51.60885.5348-.72577,1.17426-1.34298,1.91838-1.85164-17.20295,13.29093-34.4059,26.58186-51.60885,39.8728.74984-.50795,1.54623-.92766,2.38919-1.25913-20.30476,8.56871-40.60952,17.13742-60.91428,25.70613,2.56878-.93506,5.234-1.50654,7.83349-2.34295,22.96256-7.38842,45.21167-17.70697,66.84186-28.00448,2.25542-1.07374,4.4533-2.22672,6.56324-3.568,20.41191-12.97575,39.04019-28.75623,57.58499-44.2486,1.90242-1.58928,3.70335-3.29876,5.40255-5.10333,15.70026-16.67387,36.86669-46.96142,43.9465-56.35945,3.09576-4.10944,5.8748-8.38256,8.2367-12.95734,12.32044-23.86351,22.55169-48.93751,31.42011-74.28264,1.93439-5.52831,3.44937-11.20116,4.60532-16.94171,5.47727-27.2006,8.62871-54.91926,11.28474-82.51899.54609-5.67462.72782-11.36375.68053-17.06308-.06288-7.57838-.46784-15.15249-1.16504-22.69855-2.79309-30.23064-7.0965-60.35814-12.02511-90.30901-2.46961-15.00766-5.90756-29.84271-9.89597-44.51522-7.95707-29.27233-17.82173-58.06198-27.78131-86.70441-16.49978-47.45118-35.7303-94.14813-56.7723-139.72243-12.01749-26.02837-26.02771-51.21402-43.02463-74.34042-29.9062-40.69107-59.9963-80.04072-96.94356-114.32456-21.27955-19.74557-43.82143-38.06489-66.41677-56.2687-22.72889-18.3114-45.85686-36.12143-69.12734-53.74109-5.87851-4.45102-11.91273-8.71622-18.25303-12.48842-3.37003-2.00502-6.82279-3.87471-10.37225-5.54329-22.92894-10.77872-46.22252-21.18291-70.1742-29.50069-3.68636-1.28017-7.45943-2.31359-11.29389-3.0426-25.78584-4.90246-52.00876-8.99593-78.25677-10.35556-4.08797-.21175-8.19074-.11402-12.26888.22856-25.6348,2.15339-51.12088,6.12364-76.51932,10.18583-8.247,1.31901-16.34653,3.41962-24.36963,5.7118-16.31154,4.66018-32.40085,10.11381-49.24599,12.55918,22.59637-3.03628,45.19273-6.07256,67.7891-9.10885-16.14218,2.13509-32.35256,1.71801-48.46823-.44539l67.7891,9.10885c-16.81965-2.40362-33.26124-6.59502-49.41864-11.80523-33.89455-10.62699-67.7891-12.14513-101.68365-4.55442-33.93599,1.53902-65.53894,11.62587-94.80883,30.26055-29.71644,16.02438-53.56485,37.91679-71.54524,65.67722-22.53892,24.62861-37.7531,53.53485-45.64253,86.7187-3.03628,22.59637-6.07256,45.19273-9.10885,67.7891.14307,46.02955,11.74806,88.93068,34.81498,128.70338,13.29093,17.20295,26.58186,34.4059,39.8728,51.60885,31.81719,31.60374,69.3249,53.46338,112.52313,65.57892h0Z"/></g><path id="uuid-5f230543-9eec-480a-9777-992850031550" class="uuid-ce76f39e-da40-418e-b305-55c02bb81693" d="M1345.7041,1301.86865c1.60492,4.17834,4.38385,16.66351,3.64746,32.71851-1.35696,29.58636-32.4678,59.15405-61.39648,72.5249v-.00018c0-.00012-.00122.00122-.00122.00122-.00092.0011-17.51617,1.33728-35.02335,2.63-21.09651,1.55774-31.64571,2.32404-34.97543,2.36896-18.8507.25433-31.62667-1.92072-31.68555-1.44562-.04179.33722,6.36991,1.61877,37,6,7.18582.99347,12.86563,1.65082,16,2,.00011,0,42.30206,4.71252,123.68491-1.55426h.00037c.00006,0,.00012-.00006.00021-.00006.00006,0,.00006-.00006.00006-.00006,79.50598-7.48077,135.01953-19.88855,135-20-.02914-.1662-91.51688,19.24939-95.00671,7.83844-.56671-1.85333,1.16135-3.78558,5.00671-7.83844,11.69708-12.32849,14.92935-26.83826,18.48007-42.7782,2.04163-9.16534,4.41898-25.6225.20477-46.5802"/><path id="uuid-44907397-d8f9-4db6-8d74-241b269b6d06" class="uuid-824e84bb-7f08-42f5-a96f-76e91ad5e8a7" d="M1617.71613,637.32302l30.13287-40.11398c-10.88483-5.94398-53.33337,6.98036-55.2301,4.96162-16.1076-17.14432,63.68579-61.83601-55.29507-45.15984,79.61819-83.5865-14.93988-38.5173-30.15442-45.15053-7.15012-3.11722,28.98972-48.37898,20.01648-55.16792-11.13998-8.42827-99.86206,56.3607-15.0502-50.15112-81.82953,16.92542-26.20117-23.04712-35.22171-30.13895-16.54739-13.00925-55.82535,22.93207-70.32288,30.0444,32.26959-131.19299-21.55502-60.48117-25.13992-65.23932-3.08807-4.09851,8.983-29.80981,4.96521-35.06317-12.92007-16.89316-47.84119,47.33878-60.27359,30.10077-4.38385-6.07834,7.78015-48.40842-7.66037-55.16409-4.71512-2.06299-37.38495,79.17258-32.61917-25.11993-15.99365,1.48596-56.95953,58.48984-64.11438,59.87488-38.11127,7.37784-69.12537-4.92432-115.1992,9.48462-39.82239,12.45392-82.82722,51.41281-103.80211,69.32794-5.54596,4.73694-19.75288,17.14758-41.48277,22.21365-6.73752,1.57083-20.65865,5.74167-35.39627.4838-22.74864-8.116-29.93126-32.48666-44.45679-31.44968-23.51227,1.67862-36.241,60.76859-10.49797,81.00754,13.56407,10.66399,34.62318,6.59035,41.38687,11.57784,45.70267,33.70102,171.73561,202.1656,182.36755,252.80243,9.08607,43.27431-16.23032,45.02472-56.27098,36.14067-11.40854-2.5312-50.77034-61.4415-33.72406,26.67931,6.45744,33.38196,101.87004,58.24875,103.28194,65.00809,4.18091,20.01617,9.00635,34.64218,14.71222,59.45877,3.08029,13.39722,3.91388,24.2363,7.16904,36.76424,8.20526,31.57806,21.7453,76.29089,31.53732,99.73251,41.47675,99.29337,152.83844,166.81348,184.33044,248.80109,1.60492,4.17834,4.38385,16.66351,3.64746,32.71851-1.35696,29.58636-32.4678,59.15405-61.39648,72.5249-.00046.00012-18.35388,12.68842-45,10-616.07153-62.15912-851.82947-872.28571-357.46346-1261.77826,533.11531-420.02173,1273.87325,63.09494,1132.98787,716.91344-55.16235,255.99641-310.88281,504.7795-575.45148,534.66383-72.75543,8.21808-27.48489-10.7312-16.59286-52.57721,2.51205-9.651-2.07245-44.29639.20477-46.5802,6.42487-6.44348,174.67758-13.5188,181.04831-20.01587,1.98511-2.02454-2.03064-28.19806-.05652-30.16858,1.97406-1.9704,28.19873,2.03674,30.22449.05719,2.53857-2.4809-2.78503-51.85315.03021-55.22534,1.86627-2.23557,46.76593,19.81079,58.07635,5.15076,10.1123-13.10715-42.23773-80.49225-38.026-100.504h100.55145l-30.16559-60.22018h70.38611c5.05963-20.15396-59.69666-56.02463-60.1958-60.33356-2.36438-20.4129,50.81433-12.58102,50.00549-29.88342-.26917-5.75836-104.11957-52.25557-58.55133-78.54784,15.1286-8.7291,50.54156.80582,40.85052-26.90811-11.35083-32.46124-91.84631-14.50638-12.32941-95.39131h-90.4964l60.33081-60.22018h-80.4411c.9245-4.45361,1.36554-9.44518.85876-14.82338-2.49335-26.46046-26.03845-42.21033-31.02417-45.3968Z"/></g><g id="uuid-42e84a79-cca4-4d15-acf7-386282d0b994"><path class="uuid-db168fe7-f596-40d6-ae74-29ef329e2c7a" d="M116.14453,1710.66253H42.85547c-29.8125,0-42.85547-11.65625-42.85547-38.29688v-1.11035c0-26.64062,13.04297-38.29688,42.85547-38.29688h253.40625c29.8125,0,42.85547,11.65625,42.85547,38.29688v1.11035c0,26.64062-13.04297,38.29688-42.85547,38.29688h-73.28906v269.74121c0,31.08105-14.90625,44.40137-49.6875,44.40137h-7.45312c-34.78125,0-49.6875-13.32031-49.6875-44.40137v-269.74121Z"/><path class="uuid-db168fe7-f596-40d6-ae74-29ef329e2c7a" d="M650.89844,1979.84808c0,20.53613-10.55859,32.74609-37.26562,39.40723-15.52734,3.88477-47.82422,7.76953-77.63672,7.76953-111.79688,0-173.90625-52.72656-173.90625-149.85547,0-98.79492,63.97266-152.07715,154.03125-152.07715,87.57422,0,149.0625,53.28223,149.0625,137.09082,0,26.6416-16.14844,37.74219-48.44531,37.74219h-152.78906c3.10547,39.40625,28.57031,58.27734,81.36328,58.27734,21.11719,0,42.23438-4.99512,58.38281-9.99023,27.32812-8.32617,47.20312,3.33008,47.20312,24.4209v7.21484ZM567.05078,1846.643c-1.86328-42.7373-21.73828-62.16309-50.92969-62.16309-31.05469,0-50.92969,21.64648-52.17188,62.16309h103.10156Z"/><path class="uuid-db168fe7-f596-40d6-ae74-29ef329e2c7a" d="M973.85498,1980.95843c0,25.53125-11.80078,34.9668-37.88672,41.07129-15.52734,3.33008-30.43359,4.99512-49.06641,4.99512-106.20703,0-171.42188-53.28223-171.42188-150.96582s65.21484-150.9668,171.42188-150.9668c18.63281,0,33.53906,1.66504,49.06641,4.99609,26.08594,6.10449,37.88672,15.54004,37.88672,41.07129v2.77539c0,21.64551-18.01172,35.52148-45.96094,27.19629-9.31641-2.77539-21.11719-6.10547-36.64453-6.10547-38.50781,0-68.32031,21.64551-68.32031,81.0332s29.8125,81.0332,68.32031,81.0332c15.52734,0,27.32812-3.33008,36.64453-6.10547,27.94922-8.3252,45.96094,5.55078,45.96094,27.19629v2.77539Z"/><path class="uuid-db168fe7-f596-40d6-ae74-29ef329e2c7a" d="M1032.85303,1654.60491c0-31.08105,14.90625-44.40234,49.6875-44.40234h4.96875c34.78125,0,49.6875,13.32129,49.6875,44.40234v102.67871l6.21094,2.2207c21.11719-21.09082,50.30859-34.41211,89.4375-34.41211,65.21484,0,108.69141,37.18652,108.69141,108.22949v147.08203c0,31.08105-14.90625,44.40137-49.6875,44.40137h-4.96875c-34.78125,0-49.6875-13.32031-49.6875-44.40137v-139.86621c0-31.08105-14.90625-43.84668-40.99219-43.84668-21.73828,0-44.09766,8.87988-59.00391,24.4209v159.29199c0,31.08105-14.90625,44.40137-49.6875,44.40137h-4.96875c-34.78125,0-49.6875-13.32031-49.6875-44.40137v-325.79883Z"/><path class="uuid-db168fe7-f596-40d6-ae74-29ef329e2c7a" d="M1424.75293,1966.52777c0-31.08105,14.90625-44.40234,49.6875-44.40234h13.66406c34.78125,0,49.6875,13.32129,49.6875,44.40234v12.21094c0,31.08105-14.90625,44.40137-49.6875,44.40137h-13.66406c-34.78125,0-49.6875-13.32031-49.6875-44.40137v-12.21094Z"/><path class="uuid-db168fe7-f596-40d6-ae74-29ef329e2c7a" d="M1624.74023,1674.0307c0-31.08105,14.90625-44.40234,49.6875-44.40234h6.21094c34.78125,0,49.6875,13.32129,49.6875,44.40234v212.57324c0,46.06738,20.49609,68.26855,63.35156,68.26855s63.35156-22.20117,63.35156-68.26855v-212.57324c0-31.08105,14.90625-44.40234,49.6875-44.40234h4.96875c34.78125,0,49.6875,13.32129,49.6875,44.40234v218.12402c0,81.0332-53.41406,134.87012-168.31641,134.87012s-168.31641-53.83691-168.31641-134.87012v-218.12402Z"/><path class="uuid-db168fe7-f596-40d6-ae74-29ef329e2c7a" d="M2048.93652,1771.71429c0-31.08105,14.90625-44.40137,49.6875-44.40137h4.96875c28.57031,0,45.33984,9.43555,49.6875,29.9707l6.21094,2.2207c21.11719-21.09082,50.30859-34.41211,89.4375-34.41211,65.21484,0,108.69141,37.18652,108.69141,108.22949v147.08203c0,31.08105-14.90625,44.40137-49.6875,44.40137h-4.96875c-34.78125,0-49.6875-13.32031-49.6875-44.40137v-139.86621c0-31.08105-14.90625-43.84668-40.99219-43.84668-21.73828,0-44.09766,8.87988-59.00391,24.4209v159.29199c0,31.08105-14.90625,44.40137-49.6875,44.40137h-4.96875c-34.78125,0-49.6875-13.32031-49.6875-44.40137v-208.68945Z"/><g id="uuid-0480b6bb-3729-4e57-914a-ead912dbca17"><g id="uuid-41025f4c-7da5-4db2-b7c6-90198a7e6497"><path class="uuid-db168fe7-f596-40d6-ae74-29ef329e2c7a" d="M2450.27197,1960.0056v-186.48926c0-31.08398,14.90723-44.4043,49.68994-44.4043h4.96826c34.78271,0,49.6875,13.32031,49.6875,44.4043v205.36133c0,31.08398-14.90479,44.4043-49.6875,45.73242h-5.59081l-11.38428-35"/><path class="uuid-db168fe7-f596-40d6-ae74-29ef329e2c7a" d="M2487.95508,1764.11204l11.38428-35h5.59081c34.78271,1.32812,49.6875,14.64844,49.6875,45.73242v205.36133c0,31.08398-14.90479,44.4043-49.6875,44.4043h-4.96826c-34.78271,0-49.68994-13.32031-49.68994-44.4043v-186.48926M2445.92383,1637.1931c0-28.30566,13.66455-40.51758,45.3418-40.51758h22.36084c31.6748,0,45.33936,12.21191,45.33936,40.51758v6.66016c0,28.30566-13.66455,40.51758-45.33936,40.51758h-22.36084c-31.67725,0-45.3418-12.21191-45.3418-40.51758v-6.66016Z"/></g></g><g id="uuid-4a3caa9f-85c6-4a83-8375-dda3b2ad3f67"><path class="uuid-b9e1f45c-5472-4aad-95be-3c9cef18a339" d="M2341.07666,1214.34863c68.80716-30.06305,143.94711-52.76931,219.96937-45.72823,80.40134,7.5353,145.28245,47.96619,202.19292,102.84769,15.39338,14.80119,29.87934,30.26036,43.76618,46.06572l-38.1001,33.15643c-101.88706-118.98289-199.8534-165.82423-353.71562-114.48545-18.63778,6.16154-37.08492,13.32206-55.35591,21.11381l-18.75684-42.96997h0Z"/><path class="uuid-4e496116-3ee3-423b-9847-f1f24dcf9016" d="M2397.12158,1290.25219c119.52291-59.21873,217.7927-53.87056,310.50306,47.83216,10.68566,11.51239,20.67956,23.40612,30.2373,35.48876l-39.81372,31.07782c-33.65507-42.70159-71.54903-84.72331-124.73873-99.36117-53.11858-14.13115-106.76785,4.13966-155.67154,27.12035-.00001.00028-20.51637-42.15792-20.51637-42.15792h0Z"/><path class="uuid-4e496116-3ee3-423b-9847-f1f24dcf9016" d="M2444.40674,1372.23461c84.25515-38.12014,147.19577-24.64139,207.63185,45.33863.00023-.00061-38.16725,33.07818-38.16725,33.07818-10.13574-11.89587-20.76001-22.80298-32.01282-31.38831-22.69275-17.68583-47.46374-23.11418-75.72271-17.66235-14.10797,2.54419-28.58478,7.5376-42.90741,13.5755l-18.82166-42.94165h0Z"/></g><g id="uuid-472b85cd-b5c0-4a54-87a8-be9fd0d47b9c"><path class="uuid-a137b5f7-8561-4bd3-b985-de5a7d052d4f" d="M2702.48237,1606.22715c-25.99049,50.62818-143.62419,109.044-235.14684,83.7148-91.51111-25.31603-141.20038-113.73974-90.80787-189.32372,31.12179-46.68297,86.72124-43.47244,178.23152-18.14406,91.51687,25.32263,173.34989,73.83916,147.72319,123.75298Z"/><path class="uuid-a137b5f7-8561-4bd3-b985-de5a7d052d4f" d="M2486.8535,1627.5105c-67.57957-16.74377-122.11982-70.99247-110.38552-118.30781,11.71536-47.3104,85.26976-69.81154,152.86087-53.05461,67.56722,16.74295,191.17161,88.08815,179.45626,135.39856-11.74172,47.33347-154.35203,52.70764-221.9316,35.96387"/><path class="uuid-76bd2bdb-76dd-4118-be98-f3026108ff91" d="M2478.68586,1625.46786c-59.6492-14.77269-98.18216-70.94613-87.82768-112.69967,10.36024-41.74694,76.32333-61.313,135.95934-46.52877,59.62448,14.77105,177.89976,80.00465,167.56342,121.7656-10.35367,41.74118-134.39009,61.53205-215.69509,37.46285"/><path class="uuid-d80dac59-e2fd-4b92-902e-6ffcee01d1ab" d="M2486.65991,1599.32481c-46.68098-11.56819-77.93947-47.43335-69.83728-80.1023,8.08487-32.6887,52.4764-49.79873,99.15739-38.23055,46.69333,11.569,139.03617,62.55634,130.95128,95.24504-8.09065,32.68212-113.57886,34.66917-160.27139,23.08781Z"/><path class="uuid-0522d70a-2710-495a-b7f3-33a3f7b1a8db" d="M2521.58347,1487.17758c35.43903,9.47088,52.4367,40.00433,49.97212,70.28519-1.46253,17.96109-40.5311,25.25286-75.96438,15.78855-35.41431-9.46924-56.43486-41.00757-52.34804-50.05754,12.48923-27.69947,42.92515-45.4731,78.3403-36.01621Z"/><path class="uuid-022ca1a3-64b4-4c06-a5b7-5401bcff64d3" d="M2528.52579,1503.31859c15.3847,4.103,25.0913,17.76492,21.703,30.50998-3.4122,12.73107-18.63963,19.7463-34.03008,15.63672-15.36494-4.1203-25.07811-17.77646-21.68404-30.51493,3.40725-12.75001,18.63304-19.74053,34.01113-15.63177Z"/></g></g></svg>